<svg width="276" height="418" viewBox="0 0 276 418" fill="none" xmlns="http://www.w3.org/2000/svg">
<path fill-rule="evenodd" clip-rule="evenodd" d="M121.373 36.4702C116.765 31.0615 113.647 24.433 114.168 17.0056C115.669 -4.39492 145.46 0.312914 151.254 11.114C157.049 21.9152 156.361 49.3131 148.871 51.2436C145.885 52.0134 139.522 50.1276 133.046 46.2244L137.111 74.9801H113.111L121.373 36.4702Z" fill="#B28B67"/>
<path fill-rule="evenodd" clip-rule="evenodd" d="M134.246 19.369C135.165 32.1662 137.595 38.5648 141.537 38.5648C147.45 38.5648 152.466 34.8112 155.061 34.8112C156.952 34.8112 156.53 37.1778 155.276 38.9326C154.242 40.3803 149.205 41.7757 149.205 44.0202C149.205 46.2646 153.185 44.5282 153.185 45.8593C153.185 48.0612 153.884 52.2011 150.062 52.2011C146.195 52.2011 135.106 50.7917 133.206 45.0516C131.979 41.3471 131.186 33.6707 130.827 22.0223C130.592 21.9945 130.353 21.9801 130.111 21.9801C126.797 21.9801 124.111 24.6664 124.111 27.9801C124.111 29.6623 124.803 31.1829 125.919 32.2723C124.53 34.2319 122.974 36.279 121.192 38.3913C114.494 34.3728 109.523 22.6091 116.072 11.3084C117.882 5.77235 121.979 2.81535 126.818 1.44232C130.739 -0.197471 134.808 -0.382359 138.243 0.60068C144.977 1.17827 150.99 3.23162 152.694 4.45106C152.694 10.8263 151.459 12.7178 140.908 12.5511C138.315 13.9202 136.322 16.278 134.246 19.369Z" fill="#191847"/>
<path fill-rule="evenodd" clip-rule="evenodd" d="M95.5752 168.211C97.4556 193.876 218.598 269.438 219.305 271.558C219.619 272.5 207.05 302.286 181.598 360.915L192.187 365.03C231.227 302.937 249.744 268.583 247.738 261.967C244.868 252.494 213.537 221.333 153.746 168.484L95.5752 168.211Z" fill="#B28B67"/>
<path fill-rule="evenodd" clip-rule="evenodd" d="M184.384 347.674L201.674 353.968C238.131 312.833 252.421 278.894 249.815 261.601C248.078 250.073 216.855 218.963 156.147 168.273L94.3353 168.273C96.4444 227.71 208.728 271.784 210.23 274.317C211.732 276.85 196.952 301.656 184.384 347.674Z" fill="#2F3676"/>
<path fill-rule="evenodd" clip-rule="evenodd" d="M177.701 358.893C175.54 361.421 174.195 363.411 173.666 364.864C173.022 366.632 172.378 369.318 171.733 372.922C173.783 373.668 192.208 380.374 227.007 393.04C230.172 388.815 230.276 385.949 227.319 384.444C224.362 382.939 221.915 381.662 219.98 380.611L198.457 359.808C198.043 359.407 197.383 359.419 196.983 359.833C196.976 359.84 196.969 359.847 196.962 359.854L193.853 363.259C190.502 363.553 187.93 363.374 186.139 362.722C184.684 362.192 182.888 360.873 180.752 358.764L180.752 358.764C179.932 357.955 178.611 357.964 177.802 358.784C177.767 358.819 177.734 358.856 177.701 358.893Z" fill="#E4E4E4"/>
<path fill-rule="evenodd" clip-rule="evenodd" d="M109.504 168.211L55.5384 297.766L2.49858 407.295H15.0124L151.922 168.211H109.504Z" fill="#997659"/>
<path fill-rule="evenodd" clip-rule="evenodd" d="M1.75012 402.238C0.583372 405.353 0 407.683 0 409.23C0 411.11 0.313301 413.855 0.939902 417.463C3.12158 417.463 22.7286 417.463 59.7611 417.463C61.2897 412.409 60.4073 409.681 57.114 409.278C53.8207 408.875 51.0849 408.512 48.9066 408.187L21.5671 395.999C21.041 395.764 20.4244 396.001 20.1899 396.527C20.1859 396.536 20.182 396.545 20.1782 396.554L18.4209 400.817C15.3722 402.239 12.8947 402.95 10.9887 402.95C9.44001 402.95 7.3013 402.325 4.57255 401.074L4.57256 401.074C3.52539 400.594 2.28734 401.054 1.8073 402.101C1.78661 402.146 1.76753 402.192 1.75012 402.238Z" fill="#E4E4E4"/>
<path fill-rule="evenodd" clip-rule="evenodd" d="M7.28832 384.541L35.0941 389.756C56.5935 358.148 146.569 228.544 156.434 168.211H94.5323C61.5881 211.826 27.7817 352.41 7.28832 384.541Z" fill="#5C63AB"/>
<path fill-rule="evenodd" clip-rule="evenodd" d="M196.519 61.2926L236.049 49.4261C243.423 43.6856 250.379 39.4883 256.916 36.8344C258.817 36.4766 261.965 36.6844 258.031 41.1462C254.098 45.6079 250.162 50.4779 251.285 52.3488C252.408 54.2196 256.499 52.8093 257.684 55.7728C258.473 57.7485 251.694 59.1635 237.347 60.0179L206.612 78.1059L196.519 61.2926ZM193.026 130.987L226.293 155.415C235.315 157.85 242.853 160.879 248.907 164.502C250.337 165.805 252.065 168.444 246.135 167.988C240.204 167.532 233.946 167.319 233.128 169.342C232.309 171.364 235.898 173.783 234.244 176.513C233.141 178.332 227.932 173.77 218.615 162.826L185.672 149.165L193.026 130.987Z" fill="#B28B67"/>
<path fill-rule="evenodd" clip-rule="evenodd" d="M141.355 65.1993C159.471 98.9782 185.667 124.872 223.644 151.79L209.265 168.004C166.861 152.246 144.482 142.738 133.492 110.824C130.733 102.814 128.805 77.2803 127.152 63.8457L141.355 65.1993Z" fill="#2026A2"/>
<path fill-rule="evenodd" clip-rule="evenodd" d="M90.711 177.741H171.014C152.824 122.265 143.532 84.1895 143.138 63.5148C143.117 62.4607 141.171 60.6034 140.31 60.8466C134.012 62.6254 127.272 61.9603 120.091 58.8514C101.054 89.4691 94.4705 127.166 90.711 177.741Z" fill="#F2F2F2"/>
<path fill-rule="evenodd" clip-rule="evenodd" d="M126.944 58.9008C149.962 59.0893 187.308 63.2927 230.378 49.4653L234.631 70.7127C202.079 91.6486 169.117 107.867 140.234 105.563C152.776 159.363 152.198 203.403 124.509 203.403C111.286 203.403 97.0131 203.403 81.6911 203.403C74.8907 157.701 92.7635 94.3345 109.333 62.3728C109.966 61.1523 111.313 58.8514 114.486 58.8514C117.251 58.8514 121.398 58.8514 126.927 58.8514C126.933 58.8679 126.938 58.8843 126.944 58.9008Z" fill="#1F28CF"/>
</svg>
