<svg width="853" height="133" viewBox="0 0 853 133" fill="none" xmlns="http://www.w3.org/2000/svg">
<path d="M30.64 96.44L0.52 68.6L30.64 40.76H41.32L11.08 68.6L41.32 96.44H30.64ZM124.349 29.12V113H115.949V73.76H70.4688V113H62.0688V29.12H70.4688V66.8H115.949V29.12H124.349ZM202.794 76.88C202.794 79.76 202.714 81.96 202.554 83.48H148.194C148.434 88.44 149.634 92.68 151.794 96.2C153.954 99.72 156.794 102.4 160.314 104.24C163.834 106 167.674 106.88 171.834 106.88C177.274 106.88 181.834 105.56 185.514 102.92C189.274 100.28 191.754 96.72 192.954 92.24H201.834C200.234 98.64 196.794 103.88 191.514 107.96C186.314 111.96 179.754 113.96 171.834 113.96C165.674 113.96 160.154 112.6 155.274 109.88C150.394 107.08 146.554 103.16 143.754 98.12C141.034 93 139.674 87.04 139.674 80.24C139.674 73.44 141.034 67.48 143.754 62.36C146.474 57.24 150.274 53.32 155.154 50.6C160.034 47.88 165.594 46.52 171.834 46.52C178.074 46.52 183.514 47.88 188.154 50.6C192.874 53.32 196.474 57 198.954 61.64C201.514 66.2 202.794 71.28 202.794 76.88ZM194.274 76.64C194.354 71.76 193.354 67.6 191.274 64.16C189.274 60.72 186.514 58.12 182.994 56.36C179.474 54.6 175.634 53.72 171.474 53.72C165.234 53.72 159.914 55.72 155.514 59.72C151.114 63.72 148.674 69.36 148.194 76.64H194.274ZM226.563 24.2V113H218.163V24.2H226.563ZM253.984 24.2V113H245.584V24.2H253.984ZM301.686 113.96C295.526 113.96 289.966 112.6 285.006 109.88C280.126 107.08 276.246 103.16 273.366 98.12C270.566 93 269.166 87.04 269.166 80.24C269.166 73.44 270.606 67.52 273.486 62.48C276.366 57.36 280.286 53.44 285.246 50.72C290.206 47.92 295.766 46.52 301.926 46.52C308.086 46.52 313.646 47.92 318.606 50.72C323.646 53.44 327.566 57.36 330.366 62.48C333.246 67.52 334.686 73.44 334.686 80.24C334.686 86.96 333.246 92.88 330.366 98C327.486 103.12 323.526 107.08 318.486 109.88C313.446 112.6 307.846 113.96 301.686 113.96ZM301.686 106.64C306.006 106.64 310.006 105.68 313.686 103.76C317.366 101.76 320.326 98.8 322.566 94.88C324.886 90.88 326.046 86 326.046 80.24C326.046 74.48 324.926 69.64 322.686 65.72C320.446 61.72 317.486 58.76 313.806 56.84C310.126 54.84 306.126 53.84 301.806 53.84C297.486 53.84 293.486 54.84 289.806 56.84C286.126 58.76 283.166 61.72 280.926 65.72C278.766 69.64 277.686 74.48 277.686 80.24C277.686 86 278.766 90.88 280.926 94.88C283.166 98.8 286.086 101.76 289.686 103.76C293.366 105.68 297.366 106.64 301.686 106.64ZM484.688 29.12L460.928 113H451.568L430.448 41.48L408.848 113L399.728 113.12L376.448 29.12H385.448L404.648 102.68L426.128 29.12H435.488L456.368 102.68L475.688 29.12H484.688ZM526.218 113.96C520.058 113.96 514.498 112.6 509.538 109.88C504.658 107.08 500.778 103.16 497.898 98.12C495.098 93 493.698 87.04 493.698 80.24C493.698 73.44 495.138 67.52 498.018 62.48C500.898 57.36 504.818 53.44 509.778 50.72C514.738 47.92 520.298 46.52 526.458 46.52C532.618 46.52 538.178 47.92 543.138 50.72C548.178 53.44 552.098 57.36 554.898 62.48C557.778 67.52 559.218 73.44 559.218 80.24C559.218 86.96 557.778 92.88 554.898 98C552.018 103.12 548.058 107.08 543.018 109.88C537.978 112.6 532.378 113.96 526.218 113.96ZM526.218 106.64C530.538 106.64 534.538 105.68 538.218 103.76C541.898 101.76 544.858 98.8 547.098 94.88C549.418 90.88 550.578 86 550.578 80.24C550.578 74.48 549.458 69.64 547.218 65.72C544.978 61.72 542.018 58.76 538.338 56.84C534.658 54.84 530.658 53.84 526.338 53.84C522.018 53.84 518.018 54.84 514.338 56.84C510.658 58.76 507.698 61.72 505.458 65.72C503.298 69.64 502.218 74.48 502.218 80.24C502.218 86 503.298 90.88 505.458 94.88C507.698 98.8 510.618 101.76 514.218 103.76C517.898 105.68 521.898 106.64 526.218 106.64ZM582.93 59.12C584.77 55.04 587.57 51.88 591.33 49.64C595.17 47.4 599.85 46.28 605.37 46.28V55.04H603.09C597.01 55.04 592.13 56.68 588.45 59.96C584.77 63.24 582.93 68.72 582.93 76.4V113H574.53V47.48H582.93V59.12ZM626.406 24.2V113H618.006V24.2H626.406ZM641.588 80.12C641.588 73.4 642.948 67.52 645.668 62.48C648.388 57.36 652.108 53.44 656.828 50.72C661.628 47.92 667.028 46.52 673.028 46.52C678.788 46.52 683.988 47.92 688.628 50.72C693.268 53.52 696.668 57.16 698.828 61.64V24.2H707.228V113H698.828V98.36C696.828 102.92 693.548 106.68 688.988 109.64C684.428 112.52 679.068 113.96 672.908 113.96C666.908 113.96 661.508 112.56 656.708 109.76C651.988 106.96 648.268 103 645.548 97.88C642.908 92.76 641.588 86.84 641.588 80.12ZM698.828 80.24C698.828 74.96 697.748 70.32 695.588 66.32C693.428 62.32 690.468 59.24 686.708 57.08C683.028 54.92 678.948 53.84 674.468 53.84C669.828 53.84 665.668 54.88 661.988 56.96C658.308 59.04 655.388 62.08 653.228 66.08C651.148 70 650.108 74.68 650.108 80.12C650.108 85.48 651.148 90.2 653.228 94.28C655.388 98.28 658.308 101.36 661.988 103.52C665.668 105.6 669.828 106.64 674.468 106.64C678.948 106.64 683.028 105.56 686.708 103.4C690.468 101.24 693.428 98.16 695.588 94.16C697.748 90.16 698.828 85.52 698.828 80.24ZM796.654 0.199993L763.534 132.92H755.254L788.134 0.199993H796.654ZM812.063 40.76H822.743L852.863 68.6L822.743 96.44H812.063L842.303 68.6L812.063 40.76Z" fill="#333333"/>
</svg>
