<svg width="927" height="436" viewBox="0 0 927 436" fill="none" xmlns="http://www.w3.org/2000/svg">
<path fill-rule="evenodd" clip-rule="evenodd" d="M95 193L131.255 320.227L157.707 414H177L148.891 193H95Z" fill="#191847"/>
<path fill-rule="evenodd" clip-rule="evenodd" d="M85.3044 193C84.4658 258.574 81.6063 294.34 80.7258 300.298C79.8453 306.256 66.5322 344.156 40.7864 414H60.7727C93.549 346.997 111.846 309.096 115.663 300.298C119.479 291.5 131.259 255.734 149 193H85.3044Z" fill="#2F3676"/>
<path fill-rule="evenodd" clip-rule="evenodd" d="M39 432L40 411H61C70.9576 418 83.9576 423.667 100 428V432H62L49 430V432H39Z" fill="#191847"/>
<path fill-rule="evenodd" clip-rule="evenodd" d="M155 432L156 411H177C186.958 418 199.958 423.667 216 428V432H178L165 430V432H155Z" fill="#191847"/>
<path fill-rule="evenodd" clip-rule="evenodd" d="M107.393 39.7614C102.588 34.1207 99.3353 27.2078 99.8788 19.4618C101.445 -2.85664 132.513 2.05314 138.556 13.3176C144.6 24.582 143.882 53.1552 136.071 55.1685C132.956 55.9714 126.321 54.0046 119.567 49.934L123.806 79.9232H98.7767L107.393 39.7614Z" fill="#B28B67"/>
<path fill-rule="evenodd" clip-rule="evenodd" d="M127.518 14.9512C124.121 16.8512 121.704 20.4114 118.794 25.0813C118.085 24.8027 117.313 24.6497 116.506 24.6497C113.05 24.6497 110.249 27.4513 110.249 30.9071C110.249 32.6615 110.971 34.2472 112.134 35.3834C110.686 37.4271 109.063 39.562 107.204 41.7649C100.265 37.6019 95.1041 25.4688 101.729 13.7559C107.43 -9.70591 139.73 4.85659 145.944 0.899656C147.302 9.41355 142.921 16.2785 127.518 14.9512Z" fill="#191847"/>
<path fill-rule="evenodd" clip-rule="evenodd" d="M191.864 157.856L222.513 187.563C231.431 191.342 238.738 195.515 244.434 200.083C245.715 201.618 247.109 204.559 241.083 203.243C235.056 201.927 228.657 200.811 227.524 202.759C226.392 204.706 229.729 207.69 227.636 210.239C226.24 211.938 221.547 206.533 213.555 194.026L181.684 175.356L191.864 157.856ZM41.9875 130.969L65.6795 131.058C47.6349 189.143 38.0563 219.556 36.9435 222.296C34.44 228.46 39.7379 237.849 42.0035 242.894C34.6245 246.175 35.4107 234.025 26.1023 238.328C17.6061 242.255 11.143 249.371 1.32678 243.353C0.119932 242.614 -1.20257 239.828 1.99277 237.651C9.95353 232.227 21.4255 222.735 22.9755 219.611C25.0893 215.351 31.4266 185.803 41.9875 130.969Z" fill="#B28B67"/>
<path fill-rule="evenodd" clip-rule="evenodd" d="M114.181 64.1939L123.537 62.5995C138.275 114.362 214 149.645 218.648 168.996C220.353 176.092 215.213 179.679 217.868 181.84L205.707 190.685C203.648 188.298 199.254 192.665 190.076 189.61C180.899 186.556 114.181 125.485 114.181 64.1939Z" fill="#DB2721"/>
<path fill-rule="evenodd" clip-rule="evenodd" d="M129.919 71.0756C128.84 139.605 168.713 157.086 159.831 184.577C152.497 207.279 82.2985 231.684 70.151 209.43C65.2338 200.423 63.0029 189.528 62.7498 177.684C59.6452 186.784 57.1897 194.617 55.3835 201.185C52.2675 212.515 40.1876 214.316 40.1876 218.681L24.2724 214.316C25.3519 208.387 17.8491 205.499 19.8608 192.251C28.8744 132.893 53.0922 89.8669 92.5144 63.1714L92.9312 57.2484C93.0966 54.9519 95.0885 53.2204 97.3856 53.3763L126.839 55.4226C129.137 55.5785 130.871 57.5711 130.711 59.8695C130.711 59.8708 130.711 59.872 130.707 59.873L129.919 71.0756Z" fill="#FF4133"/>
<path fill-rule="evenodd" clip-rule="evenodd" d="M835.738 142.49C840.346 137.081 843.464 130.453 842.943 123.025C841.442 101.625 811.651 106.333 805.857 117.134C800.062 127.935 800.75 155.333 808.24 157.263C811.226 158.033 817.589 156.147 824.065 152.244L820 181H844L835.738 142.49Z" fill="#915B3C"/>
<path fill-rule="evenodd" clip-rule="evenodd" d="M837.582 147.308C840.594 133.906 849.175 124.771 847.865 118.782C846.991 114.789 844.662 112.305 840.879 111.332C838.922 103.416 832.61 100.048 821.944 101.23C805.945 103.004 796.181 109.648 800.398 124.268C804.274 124.268 808.954 122.866 815.424 125.268C817.478 126.03 818.946 128.393 819.83 132.358H822.754C825.592 127.653 828.391 125.924 831.149 127.171C833.908 128.418 834.535 131.447 833.03 136.259L834.471 147.308H837.582Z" fill="#191847"/>
<path fill-rule="evenodd" clip-rule="evenodd" d="M911 306H796C787.163 306 780 313.163 780 322V414C780 422.837 787.163 430 796 430H911C919.837 430 927 422.837 927 414V322C927 313.163 919.837 306 911 306ZM895 334C897.209 334 899 335.791 899 338V398C899 400.209 897.209 402 895 402H812C809.791 402 808 400.209 808 398V338C808 335.791 809.791 334 812 334H895Z" fill="#C5CFD6"/>
<path fill-rule="evenodd" clip-rule="evenodd" d="M680.841 425C700.557 400.924 713.897 383.075 720.862 371.454C732.787 351.555 742.547 333.848 745.627 327.084C752.972 310.955 728.718 303.403 723.229 310.926C714.921 322.312 697.178 358.143 670 418.417L680.841 425Z" fill="#B28B67"/>
<path fill-rule="evenodd" clip-rule="evenodd" d="M721.242 418L757.935 325.637C765.783 308.8 727.884 297.732 722.117 305.568C709.023 323.357 677.901 393.534 674 398.834L721.242 418Z" fill="#2F3676"/>
<path fill-rule="evenodd" clip-rule="evenodd" d="M818.967 399.477C811.819 389.051 785.821 353.974 771.661 339.461C767.592 335.291 763.621 331.288 759.866 327.557C748.704 316.47 726.476 335.106 737.618 345.205C765.365 370.355 805.849 404.307 809.231 407.334C813.972 411.577 823.459 406.029 818.967 399.477Z" fill="#915B3C"/>
<path fill-rule="evenodd" clip-rule="evenodd" d="M817.295 394.767C819.758 396.794 821.359 398.45 822.101 399.734C823.002 401.296 824.058 403.725 825.267 407.021C823.456 408.067 807.174 417.467 776.422 435.222C772.73 431.759 772.155 429.07 774.696 427.157C777.238 425.243 779.335 423.629 780.988 422.315L797.848 399.087C798.172 398.64 798.798 398.54 799.244 398.865C799.252 398.87 799.26 398.876 799.267 398.882L802.77 401.579C805.984 401.299 808.382 400.702 809.965 399.788C811.251 399.045 812.727 397.501 814.393 395.154L814.393 395.154C815.033 394.253 816.281 394.041 817.182 394.681C817.221 394.708 817.259 394.737 817.295 394.767Z" fill="#E4E4E4"/>
<path fill-rule="evenodd" clip-rule="evenodd" d="M689.322 421.402C690.441 424.388 691 426.623 691 428.106C691 429.909 690.7 432.54 690.099 436C688.007 436 669.206 436 633.697 436C632.231 431.154 633.077 428.539 636.235 428.152C639.393 427.766 642.016 427.417 644.105 427.106L670.32 415.419C670.824 415.194 671.416 415.421 671.641 415.925C671.644 415.934 671.648 415.942 671.652 415.951L673.337 420.039C676.26 421.403 678.636 422.085 680.463 422.085C681.948 422.085 683.999 421.485 686.616 420.285L686.616 420.285C687.62 419.825 688.807 420.266 689.267 421.27C689.287 421.313 689.305 421.357 689.322 421.402Z" fill="#E4E4E4"/>
<path fill-rule="evenodd" clip-rule="evenodd" d="M771.138 330.25C801.635 325.282 822.062 321.884 832.419 320.058C861.943 314.852 870.552 298.965 865.462 264.302H811.066C803.867 266.381 773.79 279.237 720.832 302.872C711.304 307.602 713.079 321.548 714.82 326.142C714.891 326.329 730.954 353.853 763.008 408.713L807.506 380.365L771.054 333.59C770.092 331.651 770.12 330.538 771.138 330.25Z" fill="#5C63AB"/>
<path fill-rule="evenodd" clip-rule="evenodd" d="M767.219 251.211L735.32 274.635C726.669 276.97 719.441 279.874 713.636 283.349C712.265 284.598 710.608 287.128 716.295 286.691C721.981 286.254 727.982 286.049 728.767 287.989C729.551 289.929 726.11 292.248 727.696 294.865C728.754 296.61 733.749 292.235 742.683 281.741L774.27 268.642L767.219 251.211ZM889.692 252.02L868.795 252.102C881.698 293.756 888.664 315.857 889.692 318.406C892.006 324.14 887.109 332.874 885.015 337.567C891.835 340.619 891.109 329.317 899.712 333.319C907.565 336.973 913.538 343.592 922.611 337.994C923.726 337.306 924.949 334.715 921.995 332.69C914.638 327.645 904.035 318.815 902.602 315.908C900.648 311.945 896.345 290.649 889.692 252.02Z" fill="#915B3C"/>
<path fill-rule="evenodd" clip-rule="evenodd" d="M830.305 164.332L821.658 162.849C789.575 190.564 776.397 243.809 737.07 272.015L746.536 283.748C814.76 275.3 831.67 210.355 830.305 164.332Z" fill="#E87613"/>
<path fill-rule="evenodd" clip-rule="evenodd" d="M868 273C833.328 273 807.824 273 791.489 273C787.992 273 788.651 267.952 789.157 265.404C794.989 236.004 817.759 204.312 817.759 162.461L839.828 159C858.083 188.358 864.395 224.505 868 273Z" fill="#DDE3E9"/>
<path fill-rule="evenodd" clip-rule="evenodd" d="M867.385 187.858C870.59 186.937 873.129 184.788 875 181.411C883.066 166.856 880.153 158.842 871.533 156.208C862.912 153.574 855.225 159 841.49 159C840.743 159 840.059 159.047 839.437 159.14L832.528 159.535C812.706 226.715 807.239 271.537 816.128 294H876.348C879.916 302.32 883.33 309.32 886.591 315H903C904.544 265.067 892.673 222.686 867.385 187.858Z" fill="#FF9B21"/>
<path fill-rule="evenodd" clip-rule="evenodd" d="M863.235 259.498C861.341 275.344 858.263 286.845 854 294H876.348C872.186 284.295 867.815 272.794 863.235 259.498V259.498Z" fill="black" fill-opacity="0.1"/>
<path d="M257.16 225.25C257.16 222.16 257.835 219.4 259.185 216.97C260.535 214.51 262.38 212.605 264.72 211.255C267.06 209.875 269.67 209.185 272.55 209.185C276.06 209.185 279.06 210.025 281.55 211.705C284.07 213.355 285.9 215.695 287.04 218.725H283.35C282.45 216.595 281.07 214.93 279.21 213.73C277.38 212.53 275.16 211.93 272.55 211.93C270.24 211.93 268.155 212.47 266.295 213.55C264.465 214.63 263.025 216.19 261.975 218.23C260.925 220.24 260.4 222.58 260.4 225.25C260.4 227.92 260.925 230.26 261.975 232.27C263.025 234.28 264.465 235.825 266.295 236.905C268.155 237.985 270.24 238.525 272.55 238.525C275.16 238.525 277.38 237.94 279.21 236.77C281.07 235.57 282.45 233.92 283.35 231.82H287.04C285.9 234.82 284.07 237.145 281.55 238.795C279.03 240.445 276.03 241.27 272.55 241.27C269.67 241.27 267.06 240.595 264.72 239.245C262.38 237.865 260.535 235.96 259.185 233.53C257.835 231.1 257.16 228.34 257.16 225.25ZM304.072 241.36C301.762 241.36 299.677 240.85 297.817 239.83C295.987 238.78 294.532 237.31 293.452 235.42C292.402 233.5 291.877 231.265 291.877 228.715C291.877 226.165 292.417 223.945 293.497 222.055C294.577 220.135 296.047 218.665 297.907 217.645C299.767 216.595 301.852 216.07 304.162 216.07C306.472 216.07 308.557 216.595 310.417 217.645C312.307 218.665 313.777 220.135 314.827 222.055C315.907 223.945 316.447 226.165 316.447 228.715C316.447 231.235 315.907 233.455 314.827 235.375C313.747 237.295 312.262 238.78 310.372 239.83C308.482 240.85 306.382 241.36 304.072 241.36ZM304.072 238.615C305.692 238.615 307.192 238.255 308.572 237.535C309.952 236.785 311.062 235.675 311.902 234.205C312.772 232.705 313.207 230.875 313.207 228.715C313.207 226.555 312.787 224.74 311.947 223.27C311.107 221.77 309.997 220.66 308.617 219.94C307.237 219.19 305.737 218.815 304.117 218.815C302.497 218.815 300.997 219.19 299.617 219.94C298.237 220.66 297.127 221.77 296.287 223.27C295.477 224.74 295.072 226.555 295.072 228.715C295.072 230.875 295.477 232.705 296.287 234.205C297.127 235.675 298.222 236.785 299.572 237.535C300.952 238.255 302.452 238.615 304.072 238.615ZM333.709 215.98C336.649 215.98 339.049 216.895 340.909 218.725C342.769 220.525 343.699 223.15 343.699 226.6V241H340.594V226.96C340.594 224.29 339.919 222.25 338.569 220.84C337.249 219.43 335.434 218.725 333.124 218.725C330.754 218.725 328.864 219.475 327.454 220.975C326.044 222.475 325.339 224.68 325.339 227.59V241H322.189V216.43H325.339V220.615C326.119 219.115 327.244 217.975 328.714 217.195C330.184 216.385 331.849 215.98 333.709 215.98ZM362.185 215.98C365.125 215.98 367.525 216.895 369.385 218.725C371.245 220.525 372.175 223.15 372.175 226.6V241H369.07V226.96C369.07 224.29 368.395 222.25 367.045 220.84C365.725 219.43 363.91 218.725 361.6 218.725C359.23 218.725 357.34 219.475 355.93 220.975C354.52 222.475 353.815 224.68 353.815 227.59V241H350.665V216.43H353.815V220.615C354.595 219.115 355.72 217.975 357.19 217.195C358.66 216.385 360.325 215.98 362.185 215.98ZM401.372 227.455C401.372 228.535 401.342 229.36 401.282 229.93H380.897C380.987 231.79 381.437 233.38 382.247 234.7C383.057 236.02 384.122 237.025 385.442 237.715C386.762 238.375 388.202 238.705 389.762 238.705C391.802 238.705 393.512 238.21 394.892 237.22C396.302 236.23 397.232 234.895 397.682 233.215H401.012C400.412 235.615 399.122 237.58 397.142 239.11C395.192 240.61 392.732 241.36 389.762 241.36C387.452 241.36 385.382 240.85 383.552 239.83C381.722 238.78 380.282 237.31 379.232 235.42C378.212 233.5 377.702 231.265 377.702 228.715C377.702 226.165 378.212 223.93 379.232 222.01C380.252 220.09 381.677 218.62 383.507 217.6C385.337 216.58 387.422 216.07 389.762 216.07C392.102 216.07 394.142 216.58 395.882 217.6C397.652 218.62 399.002 220 399.932 221.74C400.892 223.45 401.372 225.355 401.372 227.455ZM398.177 227.365C398.207 225.535 397.832 223.975 397.052 222.685C396.302 221.395 395.267 220.42 393.947 219.76C392.627 219.1 391.187 218.77 389.627 218.77C387.287 218.77 385.292 219.52 383.642 221.02C381.992 222.52 381.077 224.635 380.897 227.365H398.177ZM405.695 228.715C405.695 226.165 406.205 223.945 407.225 222.055C408.245 220.135 409.655 218.665 411.455 217.645C413.255 216.595 415.31 216.07 417.62 216.07C420.65 216.07 423.14 216.82 425.09 218.32C427.07 219.82 428.345 221.86 428.915 224.44H425.54C425.12 222.67 424.205 221.29 422.795 220.3C421.415 219.28 419.69 218.77 417.62 218.77C415.97 218.77 414.485 219.145 413.165 219.895C411.845 220.645 410.795 221.77 410.015 223.27C409.265 224.74 408.89 226.555 408.89 228.715C408.89 230.875 409.265 232.705 410.015 234.205C410.795 235.705 411.845 236.83 413.165 237.58C414.485 238.33 415.97 238.705 417.62 238.705C419.69 238.705 421.415 238.21 422.795 237.22C424.205 236.2 425.12 234.79 425.54 232.99H428.915C428.345 235.51 427.07 237.535 425.09 239.065C423.11 240.595 420.62 241.36 417.62 241.36C415.31 241.36 413.255 240.85 411.455 239.83C409.655 238.78 408.245 237.31 407.225 235.42C406.205 233.5 405.695 231.265 405.695 228.715ZM438.828 219.085V234.34C438.828 235.84 439.113 236.875 439.683 237.445C440.253 238.015 441.258 238.3 442.698 238.3H445.578V241H442.203C439.983 241 438.333 240.49 437.253 239.47C436.173 238.42 435.633 236.71 435.633 234.34V219.085H432.213V216.43H435.633V210.265H438.828V216.43H445.578V219.085H438.828ZM452.348 211.795C451.718 211.795 451.178 211.57 450.728 211.12C450.278 210.67 450.053 210.115 450.053 209.455C450.053 208.795 450.278 208.255 450.728 207.835C451.178 207.385 451.718 207.16 452.348 207.16C452.978 207.16 453.518 207.385 453.968 207.835C454.418 208.255 454.643 208.795 454.643 209.455C454.643 210.115 454.418 210.67 453.968 211.12C453.518 211.57 452.978 211.795 452.348 211.795ZM453.923 216.43V241H450.773V216.43H453.923ZM471.811 241.36C469.501 241.36 467.416 240.85 465.556 239.83C463.726 238.78 462.271 237.31 461.191 235.42C460.141 233.5 459.616 231.265 459.616 228.715C459.616 226.165 460.156 223.945 461.236 222.055C462.316 220.135 463.786 218.665 465.646 217.645C467.506 216.595 469.591 216.07 471.901 216.07C474.211 216.07 476.296 216.595 478.156 217.645C480.046 218.665 481.516 220.135 482.566 222.055C483.646 223.945 484.186 226.165 484.186 228.715C484.186 231.235 483.646 233.455 482.566 235.375C481.486 237.295 480.001 238.78 478.111 239.83C476.221 240.85 474.121 241.36 471.811 241.36ZM471.811 238.615C473.431 238.615 474.931 238.255 476.311 237.535C477.691 236.785 478.801 235.675 479.641 234.205C480.511 232.705 480.946 230.875 480.946 228.715C480.946 226.555 480.526 224.74 479.686 223.27C478.846 221.77 477.736 220.66 476.356 219.94C474.976 219.19 473.476 218.815 471.856 218.815C470.236 218.815 468.736 219.19 467.356 219.94C465.976 220.66 464.866 221.77 464.026 223.27C463.216 224.74 462.811 226.555 462.811 228.715C462.811 230.875 463.216 232.705 464.026 234.205C464.866 235.675 465.961 236.785 467.311 237.535C468.691 238.255 470.191 238.615 471.811 238.615ZM501.448 215.98C504.388 215.98 506.788 216.895 508.648 218.725C510.508 220.525 511.438 223.15 511.438 226.6V241H508.333V226.96C508.333 224.29 507.658 222.25 506.308 220.84C504.988 219.43 503.173 218.725 500.863 218.725C498.493 218.725 496.603 219.475 495.193 220.975C493.783 222.475 493.078 224.68 493.078 227.59V241H489.928V216.43H493.078V220.615C493.858 219.115 494.983 217.975 496.453 217.195C497.923 216.385 499.588 215.98 501.448 215.98ZM526.865 241.36C524.045 241.36 521.735 240.715 519.935 239.425C518.165 238.105 517.175 236.32 516.965 234.07H520.205C520.355 235.45 521 236.575 522.14 237.445C523.31 238.285 524.87 238.705 526.82 238.705C528.53 238.705 529.865 238.3 530.825 237.49C531.815 236.68 532.31 235.675 532.31 234.475C532.31 233.635 532.04 232.945 531.5 232.405C530.96 231.865 530.27 231.445 529.43 231.145C528.62 230.815 527.51 230.47 526.1 230.11C524.27 229.63 522.785 229.15 521.645 228.67C520.505 228.19 519.53 227.485 518.72 226.555C517.94 225.595 517.55 224.32 517.55 222.73C517.55 221.53 517.91 220.42 518.63 219.4C519.35 218.38 520.37 217.57 521.69 216.97C523.01 216.37 524.51 216.07 526.19 216.07C528.83 216.07 530.96 216.745 532.58 218.095C534.2 219.415 535.07 221.245 535.19 223.585H532.04C531.95 222.145 531.38 220.99 530.33 220.12C529.31 219.22 527.9 218.77 526.1 218.77C524.51 218.77 523.22 219.145 522.23 219.895C521.24 220.645 520.745 221.575 520.745 222.685C520.745 223.645 521.03 224.44 521.6 225.07C522.2 225.67 522.935 226.15 523.805 226.51C524.675 226.84 525.845 227.215 527.315 227.635C529.085 228.115 530.495 228.58 531.545 229.03C532.595 229.48 533.495 230.14 534.245 231.01C534.995 231.88 535.385 233.035 535.415 234.475C535.415 235.795 535.055 236.98 534.335 238.03C533.615 239.05 532.61 239.86 531.32 240.46C530.03 241.06 528.545 241.36 526.865 241.36ZM584.428 209.95V241H581.278V216.205L570.208 241H567.913L556.843 216.295V241H553.693V209.95H557.023L569.038 236.86L581.053 209.95H584.428ZM590.134 228.67C590.134 226.15 590.629 223.945 591.619 222.055C592.639 220.135 594.034 218.665 595.804 217.645C597.604 216.595 599.629 216.07 601.879 216.07C604.219 216.07 606.229 216.61 607.909 217.69C609.619 218.77 610.849 220.15 611.599 221.83V216.43H614.749V241H611.599V235.555C610.819 237.235 609.574 238.63 607.864 239.74C606.184 240.82 604.174 241.36 601.834 241.36C599.614 241.36 597.604 240.835 595.804 239.785C594.034 238.735 592.639 237.25 591.619 235.33C590.629 233.41 590.134 231.19 590.134 228.67ZM611.599 228.715C611.599 226.735 611.194 224.995 610.384 223.495C609.574 221.995 608.464 220.84 607.054 220.03C605.674 219.22 604.144 218.815 602.464 218.815C600.724 218.815 599.164 219.205 597.784 219.985C596.404 220.765 595.309 221.905 594.499 223.405C593.719 224.875 593.329 226.63 593.329 228.67C593.329 230.68 593.719 232.45 594.499 233.98C595.309 235.48 596.404 236.635 597.784 237.445C599.164 238.225 600.724 238.615 602.464 238.615C604.144 238.615 605.674 238.21 607.054 237.4C608.464 236.59 609.574 235.435 610.384 233.935C611.194 232.435 611.599 230.695 611.599 228.715ZM626.035 219.085V234.34C626.035 235.84 626.32 236.875 626.89 237.445C627.46 238.015 628.465 238.3 629.905 238.3H632.785V241H629.41C627.19 241 625.54 240.49 624.46 239.47C623.38 238.42 622.84 236.71 622.84 234.34V219.085H619.42V216.43H622.84V210.265H626.035V216.43H632.785V219.085H626.035ZM642.075 219.085V234.34C642.075 235.84 642.36 236.875 642.93 237.445C643.5 238.015 644.505 238.3 645.945 238.3H648.825V241H645.45C643.23 241 641.58 240.49 640.5 239.47C639.42 238.42 638.88 236.71 638.88 234.34V219.085H635.46V216.43H638.88V210.265H642.075V216.43H648.825V219.085H642.075ZM676.25 227.455C676.25 228.535 676.22 229.36 676.16 229.93H655.775C655.865 231.79 656.315 233.38 657.125 234.7C657.935 236.02 659 237.025 660.32 237.715C661.64 238.375 663.08 238.705 664.64 238.705C666.68 238.705 668.39 238.21 669.77 237.22C671.18 236.23 672.11 234.895 672.56 233.215H675.89C675.29 235.615 674 237.58 672.02 239.11C670.07 240.61 667.61 241.36 664.64 241.36C662.33 241.36 660.26 240.85 658.43 239.83C656.6 238.78 655.16 237.31 654.11 235.42C653.09 233.5 652.58 231.265 652.58 228.715C652.58 226.165 653.09 223.93 654.11 222.01C655.13 220.09 656.555 218.62 658.385 217.6C660.215 216.58 662.3 216.07 664.64 216.07C666.98 216.07 669.02 216.58 670.76 217.6C672.53 218.62 673.88 220 674.81 221.74C675.77 223.45 676.25 225.355 676.25 227.455ZM673.055 227.365C673.085 225.535 672.71 223.975 671.93 222.685C671.18 221.395 670.145 220.42 668.825 219.76C667.505 219.1 666.065 218.77 664.505 218.77C662.165 218.77 660.17 219.52 658.52 221.02C656.87 222.52 655.955 224.635 655.775 227.365H673.055ZM685.163 220.795C685.853 219.265 686.903 218.08 688.313 217.24C689.753 216.4 691.508 215.98 693.578 215.98V219.265H692.723C690.443 219.265 688.613 219.88 687.233 221.11C685.853 222.34 685.163 224.395 685.163 227.275V241H682.013V216.43H685.163V220.795ZM698.857 241.225C698.197 241.225 697.642 241 697.192 240.55C696.772 240.1 696.562 239.545 696.562 238.885C696.562 238.225 696.772 237.685 697.192 237.265C697.642 236.815 698.197 236.59 698.857 236.59C699.487 236.59 700.012 236.815 700.432 237.265C700.882 237.685 701.107 238.225 701.107 238.885C701.107 239.545 700.882 240.1 700.432 240.55C700.012 241 699.487 241.225 698.857 241.225Z" fill="black"/>
</svg>
