<svg width="766" height="418" viewBox="0 0 766 418" fill="none" xmlns="http://www.w3.org/2000/svg">
<path d="M462.508 14.4299H349.533C346.043 14.4299 343.213 16.7731 343.213 19.6636V206.766C343.213 209.657 346.043 212 349.533 212H462.508C465.998 212 468.828 209.657 468.828 206.766V19.6636C468.828 16.7731 465.998 14.4299 462.508 14.4299Z" fill="#CDE7FF"/>
<path fill-rule="evenodd" clip-rule="evenodd" d="M405.625 199.57C412.17 199.57 417.476 195.177 417.476 189.757C417.476 184.338 412.17 179.944 405.625 179.944C399.081 179.944 393.775 184.338 393.775 189.757C393.775 195.177 399.081 199.57 405.625 199.57Z" fill="#E3F2FF"/>
<path fill-rule="evenodd" clip-rule="evenodd" d="M395.355 27.514C396.228 27.514 396.935 26.9283 396.935 26.2056C396.935 25.483 396.228 24.8972 395.355 24.8972C394.482 24.8972 393.775 25.483 393.775 26.2056C393.775 26.9283 394.482 27.514 395.355 27.514Z" fill="#E3F2FF"/>
<path d="M415.896 24.8972H402.465C401.593 24.8972 400.885 25.483 400.885 26.2056C400.885 26.9282 401.593 27.514 402.465 27.514H415.896C416.768 27.514 417.476 26.9282 417.476 26.2056C417.476 25.483 416.768 24.8972 415.896 24.8972Z" fill="#E3F2FF"/>
<path d="M454.607 32.7477H357.434C355.688 32.7477 354.273 33.9193 354.273 35.3645V65.458C354.273 66.9032 355.688 68.0748 357.434 68.0748H454.607C456.353 68.0748 457.767 66.9032 457.767 65.458V35.3645C457.767 33.9193 456.353 32.7477 454.607 32.7477Z" fill="#E3F2FF"/>
<path d="M440.387 43.3458H387.455C386.146 43.3458 385.085 44.2245 385.085 45.3084V46.6822C385.085 47.7661 386.146 48.6448 387.455 48.6448H440.387C441.696 48.6448 442.757 47.7661 442.757 46.6822V45.3084C442.757 44.2245 441.696 43.3458 440.387 43.3458Z" fill="#C2DFFC"/>
<path d="M421.426 52.1776H387.455C386.146 52.1776 385.085 53.0562 385.085 54.1402V55.514C385.085 56.5979 386.146 57.4766 387.455 57.4766H421.426C422.735 57.4766 423.796 56.5979 423.796 55.514V54.1402C423.796 53.0562 422.735 52.1776 421.426 52.1776Z" fill="#C2DFFC"/>
<path fill-rule="evenodd" clip-rule="evenodd" d="M370.864 58.2617C376.1 58.2617 380.344 54.7466 380.344 50.4112C380.344 46.0758 376.1 42.5607 370.864 42.5607C365.629 42.5607 361.384 46.0758 361.384 50.4112C361.384 54.7466 365.629 58.2617 370.864 58.2617Z" fill="#45AFFA"/>
<path d="M454.607 73.3084H357.434C355.688 73.3084 354.273 74.48 354.273 75.9252V98.1682C354.273 99.6135 355.688 100.785 357.434 100.785H454.607C456.353 100.785 457.767 99.6135 457.767 98.1682V75.9252C457.767 74.48 456.353 73.3084 454.607 73.3084Z" fill="#E3F2FF"/>
<path d="M440.387 81.5514H387.455C386.146 81.5514 385.085 82.4301 385.085 83.514V83.7103C385.085 84.7942 386.146 85.6729 387.455 85.6729H440.387C441.696 85.6729 442.757 84.7942 442.757 83.7103V83.514C442.757 82.4301 441.696 81.5514 440.387 81.5514Z" fill="#C2DFFC"/>
<path d="M421.426 88.4206H387.455C386.146 88.4206 385.085 89.2993 385.085 90.3832V90.5795C385.085 91.6634 386.146 92.5421 387.455 92.5421H421.426C422.735 92.5421 423.796 91.6634 423.796 90.5795V90.3832C423.796 89.2993 422.735 88.4206 421.426 88.4206Z" fill="#C2DFFC"/>
<path fill-rule="evenodd" clip-rule="evenodd" d="M370.864 94.8972C376.1 94.8972 380.344 91.3822 380.344 87.0468C380.344 82.7113 376.1 79.1963 370.864 79.1963C365.629 79.1963 361.384 82.7113 361.384 87.0468C361.384 91.3822 365.629 94.8972 370.864 94.8972Z" fill="#45AFFA"/>
<path d="M454.607 106.019H357.434C355.688 106.019 354.273 107.19 354.273 108.635V130.878C354.273 132.324 355.688 133.495 357.434 133.495H454.607C456.353 133.495 457.767 132.324 457.767 130.878V108.635C457.767 107.19 456.353 106.019 454.607 106.019Z" fill="#E3F2FF"/>
<path d="M440.387 114.262H387.455C386.146 114.262 385.085 115.14 385.085 116.224V116.421C385.085 117.505 386.146 118.383 387.455 118.383H440.387C441.696 118.383 442.757 117.505 442.757 116.421V116.224C442.757 115.14 441.696 114.262 440.387 114.262Z" fill="#C2DFFC"/>
<path d="M421.426 121.131H387.455C386.146 121.131 385.085 122.01 385.085 123.093V123.29C385.085 124.374 386.146 125.252 387.455 125.252H421.426C422.735 125.252 423.796 124.374 423.796 123.29V123.093C423.796 122.01 422.735 121.131 421.426 121.131Z" fill="#C2DFFC"/>
<path fill-rule="evenodd" clip-rule="evenodd" d="M370.864 127.607C376.1 127.607 380.344 124.092 380.344 119.757C380.344 115.422 376.1 111.906 370.864 111.906C365.629 111.906 361.384 115.422 361.384 119.757C361.384 124.092 365.629 127.607 370.864 127.607Z" fill="#AFB9C5"/>
<path d="M454.607 138.729H357.434C355.688 138.729 354.273 139.901 354.273 141.346V163.589C354.273 165.034 355.688 166.206 357.434 166.206H454.607C456.353 166.206 457.767 165.034 457.767 163.589V141.346C457.767 139.901 456.353 138.729 454.607 138.729Z" fill="#E3F2FF"/>
<path d="M440.387 146.972H387.455C386.146 146.972 385.085 147.851 385.085 148.935V149.131C385.085 150.215 386.146 151.093 387.455 151.093H440.387C441.696 151.093 442.757 150.215 442.757 149.131V148.935C442.757 147.851 441.696 146.972 440.387 146.972Z" fill="#C2DFFC"/>
<path d="M421.426 153.841H387.455C386.146 153.841 385.085 154.72 385.085 155.804V156C385.085 157.084 386.146 157.963 387.455 157.963H421.426C422.735 157.963 423.796 157.084 423.796 156V155.804C423.796 154.72 422.735 153.841 421.426 153.841Z" fill="#C2DFFC"/>
<path fill-rule="evenodd" clip-rule="evenodd" d="M370.864 160.318C376.1 160.318 380.344 156.803 380.344 152.467C380.344 148.132 376.1 144.617 370.864 144.617C365.629 144.617 361.384 148.132 361.384 152.467C361.384 156.803 365.629 160.318 370.864 160.318Z" fill="#45AFFA"/>
<path fill-rule="evenodd" clip-rule="evenodd" d="M367.024 174.056C365.978 174.056 364.934 174.074 363.889 174.118C363.092 174.153 361.874 174.016 361.2 174.428C360.5 174.855 360.548 175.729 360.658 176.347C361.236 179.612 362.648 182.508 365.602 184.822C370.15 188.384 375.363 190.194 381.533 191C385.867 191.567 389.867 190.78 393.058 188.228C395.389 191.811 397.157 195.775 398.044 199.776C398.482 201.751 398.615 203.701 398.539 205.712C398.489 206.999 398.404 208.284 398.237 209.566C398.164 210.123 397.821 210.965 398.085 211.492C398.393 212.109 399.435 212.17 399.903 211.642C400.293 211.204 400.222 210.342 400.301 209.824C400.434 208.961 400.557 208.098 400.644 207.232C400.787 205.83 400.892 204.424 400.885 203.017C400.867 199.855 400.018 196.681 398.856 193.679C396.628 187.92 393.014 182.802 387.392 178.787C383.935 176.318 379.979 175.318 375.49 174.781C372.695 174.447 369.855 174.056 367.024 174.056Z" fill="#347FAA"/>
<path fill-rule="evenodd" clip-rule="evenodd" d="M383.166 196.953C371.869 196.953 364.261 204.492 360.664 212.329C359.308 215.282 358.99 218.525 358.467 221.626C358.299 222.622 358.362 224.138 357.874 225.025C357.697 225.347 357.291 225.462 357.485 225.9C357.603 226.165 357.833 226.328 358.179 226.38C358.89 226.489 359.895 225.848 360.504 225.595C365.557 223.496 368.876 220.252 371.585 216.282C373.264 213.821 374.968 211.267 375.965 208.566C376.574 206.915 376.928 205.177 377.137 203.465C377.219 202.791 377.298 202.101 377.293 201.423C377.289 200.75 376.91 200.394 376.638 199.808C380.408 198.627 384.663 198.305 388.481 199.529C392.012 200.661 394.946 202.85 396.588 205.599C397.015 206.314 397.344 207.067 397.584 207.837C397.741 208.34 397.748 208.993 398.04 209.449C398.744 210.553 400.228 209.815 400.086 208.787C399.688 205.921 397.709 203.043 395.177 201.051C391.985 198.537 387.659 196.953 383.166 196.953Z" fill="#347FAA"/>
<path d="M514.65 31.4393H401.675C398.185 31.4393 395.355 33.7825 395.355 36.6729V223.776C395.355 226.666 398.185 229.009 401.675 229.009H514.65C518.14 229.009 520.97 226.666 520.97 223.776V36.6729C520.97 33.7825 518.14 31.4393 514.65 31.4393Z" fill="#C2DFFC"/>
<path fill-rule="evenodd" clip-rule="evenodd" d="M457.767 216.58C464.312 216.58 469.618 212.186 469.618 206.766C469.618 201.347 464.312 196.953 457.767 196.953C451.223 196.953 445.917 201.347 445.917 206.766C445.917 212.186 451.223 216.58 457.767 216.58Z" fill="#E3F2FF"/>
<path fill-rule="evenodd" clip-rule="evenodd" d="M447.497 44.5234C448.37 44.5234 449.077 43.9379 449.077 43.215C449.077 42.4921 448.37 41.9066 447.497 41.9066C446.624 41.9066 445.917 42.4921 445.917 43.215C445.917 43.9379 446.624 44.5234 447.497 44.5234Z" fill="#E3F2FF"/>
<path d="M468.038 41.9066H454.607C453.735 41.9066 453.027 42.4924 453.027 43.215C453.027 43.9376 453.735 44.5234 454.607 44.5234H468.038C468.91 44.5234 469.618 43.9376 469.618 43.215C469.618 42.4924 468.91 41.9066 468.038 41.9066Z" fill="#E3F2FF"/>
<path d="M506.749 49.757H409.576C407.83 49.757 406.415 50.9285 406.415 52.3738V82.4672C406.415 83.9125 407.83 85.0841 409.576 85.0841H506.749C508.495 85.0841 509.909 83.9125 509.909 82.4672V52.3738C509.909 50.9285 508.495 49.757 506.749 49.757Z" fill="#E3F2FF"/>
<path d="M468.828 60.3552H415.896C414.587 60.3552 413.526 61.2339 413.526 62.3178V63.6916C413.526 64.7755 414.587 65.6542 415.896 65.6542H468.828C470.137 65.6542 471.198 64.7755 471.198 63.6916V62.3178C471.198 61.2339 470.137 60.3552 468.828 60.3552Z" fill="#C2DFFC"/>
<path d="M449.867 69.187H415.896C414.587 69.187 413.526 70.0656 413.526 71.1496V72.5234C413.526 73.6073 414.587 74.486 415.896 74.486H449.867C451.176 74.486 452.237 73.6073 452.237 72.5234V71.1496C452.237 70.0656 451.176 69.187 449.867 69.187Z" fill="#C2DFFC"/>
<path fill-rule="evenodd" clip-rule="evenodd" d="M498.849 72C501.903 72 504.379 69.9497 504.379 67.4206C504.379 64.8914 501.903 62.8411 498.849 62.8411C495.795 62.8411 493.319 64.8914 493.319 67.4206C493.319 69.9497 495.795 72 498.849 72Z" fill="#C2DFFC"/>
<path fill-rule="evenodd" clip-rule="evenodd" d="M498.849 69.3832C500.158 69.3832 501.219 68.5046 501.219 67.4206C501.219 66.3365 500.158 65.4579 498.849 65.4579C497.54 65.4579 496.479 66.3365 496.479 67.4206C496.479 68.5046 497.54 69.3832 498.849 69.3832Z" fill="#CDE7FF"/>
<path d="M506.749 90.3178H409.576C407.83 90.3178 406.415 91.4894 406.415 92.9346V115.178C406.415 116.623 407.83 117.794 409.576 117.794H506.749C508.495 117.794 509.909 116.623 509.909 115.178V92.9346C509.909 91.4894 508.495 90.3178 506.749 90.3178Z" fill="#E3F2FF"/>
<path d="M492.529 98.5607H439.597C438.288 98.5607 437.227 99.4394 437.227 100.523V100.72C437.227 101.804 438.288 102.682 439.597 102.682H492.529C493.838 102.682 494.899 101.804 494.899 100.72V100.523C494.899 99.4394 493.838 98.5607 492.529 98.5607Z" fill="#C2DFFC"/>
<path d="M473.568 105.43H439.597C438.288 105.43 437.227 106.309 437.227 107.392V107.589C437.227 108.673 438.288 109.551 439.597 109.551H473.568C474.877 109.551 475.938 108.673 475.938 107.589V107.392C475.938 106.309 474.877 105.43 473.568 105.43Z" fill="#C2DFFC"/>
<path fill-rule="evenodd" clip-rule="evenodd" d="M423.006 111.907C428.242 111.907 432.486 108.392 432.486 104.056C432.486 99.7207 428.242 96.2056 423.006 96.2056C417.77 96.2056 413.526 99.7207 413.526 104.056C413.526 108.392 417.77 111.907 423.006 111.907Z" fill="#45AFFA"/>
<path d="M506.749 123.028H409.576C407.83 123.028 406.415 124.2 406.415 125.645V147.888C406.415 149.333 407.83 150.505 409.576 150.505H506.749C508.495 150.505 509.909 149.333 509.909 147.888V125.645C509.909 124.2 508.495 123.028 506.749 123.028Z" fill="#E3F2FF"/>
<path d="M468.828 131.271H415.896C414.587 131.271 413.526 132.15 413.526 133.234V133.43C413.526 134.514 414.587 135.392 415.896 135.392H468.828C470.137 135.392 471.198 134.514 471.198 133.43V133.234C471.198 132.15 470.137 131.271 468.828 131.271Z" fill="#C2DFFC"/>
<path d="M449.867 138.14H415.896C414.587 138.14 413.526 139.019 413.526 140.103V140.299C413.526 141.383 414.587 142.262 415.896 142.262H449.867C451.176 142.262 452.237 141.383 452.237 140.299V140.103C452.237 139.019 451.176 138.14 449.867 138.14Z" fill="#AFB9C5"/>
<path fill-rule="evenodd" clip-rule="evenodd" d="M498.849 141.346C501.903 141.346 504.379 139.296 504.379 136.766C504.379 134.237 501.903 132.187 498.849 132.187C495.795 132.187 493.319 134.237 493.319 136.766C493.319 139.296 495.795 141.346 498.849 141.346Z" fill="#C2DFFC"/>
<path fill-rule="evenodd" clip-rule="evenodd" d="M498.849 138.729C500.158 138.729 501.219 137.85 501.219 136.766C501.219 135.682 500.158 134.804 498.849 134.804C497.54 134.804 496.479 135.682 496.479 136.766C496.479 137.85 497.54 138.729 498.849 138.729Z" fill="#CDE7FF"/>
<path d="M506.749 155.738H409.576C407.83 155.738 406.415 156.91 406.415 158.355V180.598C406.415 182.043 407.83 183.215 409.576 183.215H506.749C508.495 183.215 509.909 182.043 509.909 180.598V158.355C509.909 156.91 508.495 155.738 506.749 155.738Z" fill="#E3F2FF"/>
<path d="M492.529 163.981H439.597C438.288 163.981 437.227 164.86 437.227 165.944V166.14C437.227 167.224 438.288 168.103 439.597 168.103H492.529C493.838 168.103 494.899 167.224 494.899 166.14V165.944C494.899 164.86 493.838 163.981 492.529 163.981Z" fill="#C2DFFC"/>
<path d="M473.568 170.85H439.597C438.288 170.85 437.227 171.729 437.227 172.813V173.009C437.227 174.093 438.288 174.972 439.597 174.972H473.568C474.877 174.972 475.938 174.093 475.938 173.009V172.813C475.938 171.729 474.877 170.85 473.568 170.85Z" fill="#C2DFFC"/>
<path fill-rule="evenodd" clip-rule="evenodd" d="M423.006 177.327C428.242 177.327 432.486 173.812 432.486 169.477C432.486 165.141 428.242 161.626 423.006 161.626C417.77 161.626 413.526 165.141 413.526 169.477C413.526 173.812 417.77 177.327 423.006 177.327Z" fill="#45AFFA"/>
<path d="M705.837 47.7944H453.817C450.327 47.7944 447.497 50.1376 447.497 53.0281V268.916C447.497 271.806 450.327 274.15 453.817 274.15H705.837C709.328 274.15 712.157 271.806 712.157 268.916V53.0281C712.157 50.1376 709.328 47.7944 705.837 47.7944Z" fill="#CDE7FF"/>
<path d="M693.197 75.9252H650.535C647.044 75.9252 644.215 78.2684 644.215 81.1589V123.682C644.215 126.573 647.044 128.916 650.535 128.916H693.197C696.687 128.916 699.517 126.573 699.517 123.682V81.1589C699.517 78.2684 696.687 75.9252 693.197 75.9252Z" fill="#E3F2FF"/>
<path fill-rule="evenodd" clip-rule="evenodd" d="M671.866 106.673C678.847 106.673 684.506 101.987 684.506 96.2056C684.506 90.4244 678.847 85.7383 671.866 85.7383C664.884 85.7383 659.225 90.4244 659.225 96.2056C659.225 101.987 664.884 106.673 671.866 106.673Z" fill="#C2DFFC"/>
<path d="M689.246 109.29H654.485C653.176 109.29 652.115 110.168 652.115 111.252C652.115 112.336 653.176 113.215 654.485 113.215H689.246C690.555 113.215 691.617 112.336 691.617 111.252C691.617 110.168 690.555 109.29 689.246 109.29Z" fill="#C2DFFC"/>
<path d="M682.926 115.832H660.805C659.496 115.832 658.435 116.71 658.435 117.794C658.435 118.878 659.496 119.757 660.805 119.757H682.926C684.235 119.757 685.296 118.878 685.296 117.794C685.296 116.71 684.235 115.832 682.926 115.832Z" fill="#C2DFFC"/>
<path d="M447.497 53.0281C447.497 50.1378 450.327 47.7944 453.817 47.7944H705.837C709.327 47.7944 712.157 50.1378 712.157 53.0281V65.458H447.497V53.0281Z" fill="#45AFFA"/>
<path fill-rule="evenodd" clip-rule="evenodd" d="M457.768 59.5701C459.513 59.5701 460.928 58.3984 460.928 56.9532C460.928 55.5081 459.513 54.3364 457.768 54.3364C456.022 54.3364 454.608 55.5081 454.608 56.9532C454.608 58.3984 456.022 59.5701 457.768 59.5701Z" fill="#CDE7FF"/>
<path fill-rule="evenodd" clip-rule="evenodd" d="M467.248 59.5701C468.993 59.5701 470.408 58.3984 470.408 56.9532C470.408 55.5081 468.993 54.3364 467.248 54.3364C465.503 54.3364 464.088 55.5081 464.088 56.9532C464.088 58.3984 465.503 59.5701 467.248 59.5701Z" fill="#CDE7FF"/>
<path fill-rule="evenodd" clip-rule="evenodd" d="M476.728 59.5701C478.474 59.5701 479.888 58.3984 479.888 56.9532C479.888 55.5081 478.474 54.3364 476.728 54.3364C474.983 54.3364 473.568 55.5081 473.568 56.9532C473.568 58.3984 474.983 59.5701 476.728 59.5701Z" fill="#CDE7FF"/>
<path d="M693.197 134.15H650.535C647.044 134.15 644.215 136.493 644.215 139.383V255.832C644.215 258.722 647.044 261.066 650.535 261.066H693.197C696.687 261.066 699.517 258.722 699.517 255.832V139.383C699.517 136.493 696.687 134.15 693.197 134.15Z" fill="#E3F2FF"/>
<path d="M682.136 145.925H661.595C659.85 145.925 658.435 147.097 658.435 148.542V160.318C658.435 161.763 659.85 162.935 661.595 162.935H682.136C683.882 162.935 685.296 161.763 685.296 160.318V148.542C685.296 147.097 683.882 145.925 682.136 145.925Z" fill="#C2DFFC"/>
<path d="M682.136 168.168H661.595C659.85 168.168 658.435 169.34 658.435 170.785V181.907C658.435 183.352 659.85 184.523 661.595 184.523H682.136C683.882 184.523 685.296 183.352 685.296 181.907V170.785C685.296 169.34 683.882 168.168 682.136 168.168Z" fill="#AFB9C5"/>
<path d="M682.136 189.757H661.595C659.85 189.757 658.435 190.929 658.435 192.374V203.495C658.435 204.941 659.85 206.112 661.595 206.112H682.136C683.882 206.112 685.296 204.941 685.296 203.495V192.374C685.296 190.929 683.882 189.757 682.136 189.757Z" fill="#C2DFFC"/>
<path d="M682.136 232.935H661.595C659.85 232.935 658.435 234.106 658.435 235.552V246.673C658.435 248.118 659.85 249.29 661.595 249.29H682.136C683.882 249.29 685.296 248.118 685.296 246.673V235.552C685.296 234.106 683.882 232.935 682.136 232.935Z" fill="#C2DFFC"/>
<path d="M682.136 211.346H661.595C659.85 211.346 658.435 212.517 658.435 213.963V225.084C658.435 226.529 659.85 227.701 661.595 227.701H682.136C683.882 227.701 685.296 226.529 685.296 225.084V213.963C685.296 212.517 683.882 211.346 682.136 211.346Z" fill="#45AFFA"/>
<path d="M634.734 76.5795H463.298C461.553 76.5795 460.138 77.7511 460.138 79.1963V104.71C460.138 106.156 461.553 107.327 463.298 107.327H634.734C636.48 107.327 637.895 106.156 637.895 104.71V79.1963C637.895 77.7511 636.48 76.5795 634.734 76.5795Z" fill="#E3F2FF"/>
<path d="M596.813 85.8037H469.618C468.309 85.8037 467.248 86.6824 467.248 87.7663V88.4532C467.248 89.5372 468.309 90.4159 469.618 90.4159H596.813C598.122 90.4159 599.183 89.5372 599.183 88.4532V87.7663C599.183 86.6824 598.122 85.8037 596.813 85.8037Z" fill="#C2DFFC"/>
<path d="M553.437 93.4907H469.618C468.309 93.4907 467.248 94.3694 467.248 95.4533V96.1402C467.248 97.2241 468.309 98.1028 469.618 98.1028H553.437C554.746 98.1028 555.807 97.2241 555.807 96.1402V95.4533C555.807 94.3694 554.746 93.4907 553.437 93.4907Z" fill="#C2DFFC"/>
<path fill-rule="evenodd" clip-rule="evenodd" d="M618.898 96.5327C621.952 96.5327 624.428 94.4824 624.428 91.9533C624.428 89.4241 621.952 87.3738 618.898 87.3738C615.843 87.3738 613.367 89.4241 613.367 91.9533C613.367 94.4824 615.843 96.5327 618.898 96.5327Z" fill="#C2DFFC"/>
<path fill-rule="evenodd" clip-rule="evenodd" d="M618.897 93.916C620.207 93.916 621.268 93.0374 621.268 91.9533C621.268 90.8693 620.207 89.9907 618.897 89.9907C617.588 89.9907 616.527 90.8693 616.527 91.9533C616.527 93.0374 617.588 93.916 618.897 93.916Z" fill="#CDE7FF"/>
<path d="M634.734 112.561H463.298C461.553 112.561 460.138 113.732 460.138 115.178V135.458C460.138 136.903 461.553 138.075 463.298 138.075H634.734C636.48 138.075 637.895 136.903 637.895 135.458V115.178C637.895 113.732 636.48 112.561 634.734 112.561Z" fill="#E3F2FF"/>
<path d="M596.872 120.215H469.559C468.283 120.215 467.248 121.072 467.248 122.129C467.248 123.185 468.283 124.042 469.559 124.042H596.872C598.148 124.042 599.183 123.185 599.183 122.129C599.183 121.072 598.148 120.215 596.872 120.215Z" fill="#C2DFFC"/>
<path d="M553.496 126.594H469.559C468.283 126.594 467.248 127.45 467.248 128.507C467.248 129.564 468.283 130.421 469.559 130.421H553.496C554.773 130.421 555.807 129.564 555.807 128.507C555.807 127.45 554.773 126.594 553.496 126.594Z" fill="#C2DFFC"/>
<path fill-rule="evenodd" clip-rule="evenodd" d="M618.898 129.897C621.952 129.897 624.428 127.847 624.428 125.318C624.428 122.789 621.952 120.738 618.898 120.738C615.843 120.738 613.367 122.789 613.367 125.318C613.367 127.847 615.843 129.897 618.898 129.897Z" fill="#C2DFFC"/>
<path fill-rule="evenodd" clip-rule="evenodd" d="M618.897 127.28C620.207 127.28 621.268 126.402 621.268 125.318C621.268 124.234 620.207 123.355 618.897 123.355C617.588 123.355 616.527 124.234 616.527 125.318C616.527 126.402 617.588 127.28 618.897 127.28Z" fill="#CDE7FF"/>
<path d="M634.734 143.308H463.298C461.553 143.308 460.138 144.48 460.138 145.925V166.206C460.138 167.651 461.553 168.822 463.298 168.822H634.734C636.48 168.822 637.895 167.651 637.895 166.206V145.925C637.895 144.48 636.48 143.308 634.734 143.308Z" fill="#E3F2FF"/>
<path d="M596.872 150.963H469.559C468.283 150.963 467.248 151.819 467.248 152.876C467.248 153.933 468.283 154.79 469.559 154.79H596.872C598.148 154.79 599.183 153.933 599.183 152.876C599.183 151.819 598.148 150.963 596.872 150.963Z" fill="#C2DFFC"/>
<path d="M553.496 157.341H469.559C468.283 157.341 467.248 158.198 467.248 159.255C467.248 160.311 468.283 161.168 469.559 161.168H553.496C554.773 161.168 555.807 160.311 555.807 159.255C555.807 158.198 554.773 157.341 553.496 157.341Z" fill="#C2DFFC"/>
<path fill-rule="evenodd" clip-rule="evenodd" d="M618.898 160.645C621.952 160.645 624.428 158.595 624.428 156.065C624.428 153.536 621.952 151.486 618.898 151.486C615.843 151.486 613.367 153.536 613.367 156.065C613.367 158.595 615.843 160.645 618.898 160.645Z" fill="#C2DFFC"/>
<path fill-rule="evenodd" clip-rule="evenodd" d="M618.897 158.028C620.207 158.028 621.268 157.149 621.268 156.065C621.268 154.981 620.207 154.103 618.897 154.103C617.588 154.103 616.527 154.981 616.527 156.065C616.527 157.149 617.588 158.028 618.897 158.028Z" fill="#AFB9C5"/>
<path d="M634.734 235.551H463.298C461.553 235.551 460.138 236.723 460.138 238.168V258.449C460.138 259.894 461.553 261.065 463.298 261.065H634.734C636.48 261.065 637.895 259.894 637.895 258.449V238.168C637.895 236.723 636.48 235.551 634.734 235.551Z" fill="#E3F2FF"/>
<path d="M596.872 243.206H469.559C468.283 243.206 467.248 244.062 467.248 245.119C467.248 246.176 468.283 247.033 469.559 247.033H596.872C598.148 247.033 599.183 246.176 599.183 245.119C599.183 244.062 598.148 243.206 596.872 243.206Z" fill="#C2DFFC"/>
<path d="M553.496 249.584H469.559C468.283 249.584 467.248 250.441 467.248 251.498C467.248 252.555 468.283 253.411 469.559 253.411H553.496C554.773 253.411 555.807 252.555 555.807 251.498C555.807 250.441 554.773 249.584 553.496 249.584Z" fill="#C2DFFC"/>
<path fill-rule="evenodd" clip-rule="evenodd" d="M618.898 252.888C621.952 252.888 624.428 250.838 624.428 248.308C624.428 245.779 621.952 243.729 618.898 243.729C615.843 243.729 613.367 245.779 613.367 248.308C613.367 250.838 615.843 252.888 618.898 252.888Z" fill="#C2DFFC"/>
<path fill-rule="evenodd" clip-rule="evenodd" d="M618.897 250.271C620.207 250.271 621.268 249.392 621.268 248.308C621.268 247.224 620.207 246.346 618.897 246.346C617.588 246.346 616.527 247.224 616.527 248.308C616.527 249.392 617.588 250.271 618.897 250.271Z" fill="#CDE7FF"/>
<path d="M634.734 204.804H463.298C461.553 204.804 460.138 205.975 460.138 207.421V227.701C460.138 229.146 461.553 230.318 463.298 230.318H634.734C636.48 230.318 637.895 229.146 637.895 227.701V207.421C637.895 205.975 636.48 204.804 634.734 204.804Z" fill="#E3F2FF"/>
<path d="M596.872 212.458H469.559C468.283 212.458 467.248 213.315 467.248 214.371C467.248 215.428 468.283 216.285 469.559 216.285H596.872C598.148 216.285 599.183 215.428 599.183 214.371C599.183 213.315 598.148 212.458 596.872 212.458Z" fill="#C2DFFC"/>
<path d="M553.496 218.836H469.559C468.283 218.836 467.248 219.693 467.248 220.75C467.248 221.807 468.283 222.664 469.559 222.664H553.496C554.773 222.664 555.807 221.807 555.807 220.75C555.807 219.693 554.773 218.836 553.496 218.836Z" fill="#C2DFFC"/>
<path fill-rule="evenodd" clip-rule="evenodd" d="M618.898 222.14C621.952 222.14 624.428 220.09 624.428 217.561C624.428 215.032 621.952 212.981 618.898 212.981C615.843 212.981 613.367 215.032 613.367 217.561C613.367 220.09 615.843 222.14 618.898 222.14Z" fill="#C2DFFC"/>
<path fill-rule="evenodd" clip-rule="evenodd" d="M618.897 219.523C620.207 219.523 621.268 218.645 621.268 217.561C621.268 216.477 620.207 215.598 618.897 215.598C617.588 215.598 616.527 216.477 616.527 217.561C616.527 218.645 617.588 219.523 618.897 219.523Z" fill="#CDE7FF"/>
<path d="M634.734 174.056H463.298C461.553 174.056 460.138 175.228 460.138 176.673V196.953C460.138 198.399 461.553 199.57 463.298 199.57H634.734C636.48 199.57 637.895 198.399 637.895 196.953V176.673C637.895 175.228 636.48 174.056 634.734 174.056Z" fill="#E3F2FF"/>
<path d="M596.872 181.71H469.559C468.283 181.71 467.248 182.567 467.248 183.624C467.248 184.681 468.283 185.537 469.559 185.537H596.872C598.148 185.537 599.183 184.681 599.183 183.624C599.183 182.567 598.148 181.71 596.872 181.71Z" fill="#C2DFFC"/>
<path d="M553.496 188.089H469.559C468.283 188.089 467.248 188.946 467.248 190.002C467.248 191.059 468.283 191.916 469.559 191.916H553.496C554.773 191.916 555.807 191.059 555.807 190.002C555.807 188.946 554.773 188.089 553.496 188.089Z" fill="#C2DFFC"/>
<path fill-rule="evenodd" clip-rule="evenodd" d="M618.898 191.393C621.952 191.393 624.428 189.342 624.428 186.813C624.428 184.284 621.952 182.234 618.898 182.234C615.843 182.234 613.367 184.284 613.367 186.813C613.367 189.342 615.843 191.393 618.898 191.393Z" fill="#C2DFFC"/>
<path fill-rule="evenodd" clip-rule="evenodd" d="M618.897 188.776C620.207 188.776 621.268 187.897 621.268 186.813C621.268 185.729 620.207 184.851 618.897 184.851C617.588 184.851 616.527 185.729 616.527 186.813C616.527 187.897 617.588 188.776 618.897 188.776Z" fill="#CDE7FF"/>
<path fill-rule="evenodd" clip-rule="evenodd" d="M332.158 36.0094C332.155 36.0157 332.152 36.0219 332.147 36.0295C332.152 36.0232 332.158 35.9981 332.158 36.0094Z" fill="#45AFFA"/>
<path fill-rule="evenodd" clip-rule="evenodd" d="M332.151 36.0195C332.151 36.0208 332.15 36.0235 332.15 36.0261C332.15 36.0195 332.164 35.9996 332.151 36.0195Z" fill="#45AFFA"/>
<path fill-rule="evenodd" clip-rule="evenodd" d="M332.206 35.9088C332.195 35.935 332.181 35.9598 332.168 35.986C332.174 35.9729 332.181 35.9625 332.187 35.9494C332.022 36.2896 332.127 36.0684 332.206 35.9088Z" fill="#45AFFA"/>
<path fill-rule="evenodd" clip-rule="evenodd" d="M332.17 35.988C332.164 35.9999 332.158 36.0132 332.151 36.0252C332.105 36.0997 332.17 35.988 332.17 35.988Z" fill="#45AFFA"/>
<path fill-rule="evenodd" clip-rule="evenodd" d="M332.152 36.0203C332.152 36.0188 332.152 36.0188 332.154 36.0174C332.152 36.0188 332.152 36.0188 332.152 36.0203Z" fill="#45AFFA"/>
<path fill-rule="evenodd" clip-rule="evenodd" d="M332.145 36.0291C332.136 36.0448 332.187 35.9691 332.145 36.0291V36.0291Z" fill="#45AFFA"/>
<path fill-rule="evenodd" clip-rule="evenodd" d="M332.151 36.0203L332.154 36.0174C332.153 36.0188 332.153 36.0203 332.151 36.0203Z" fill="#45AFFA"/>
<path d="M366.124 2H297.391C295.646 2 294.231 3.17159 294.231 4.61682V40.5981C294.231 42.0434 295.646 43.215 297.391 43.215H366.124C367.869 43.215 369.284 42.0434 369.284 40.5981V4.61682C369.284 3.17159 367.869 2 366.124 2Z" fill="#C2DFFC"/>
<path fill-rule="evenodd" clip-rule="evenodd" d="M322.672 13.7757L300.551 43.215H344.793L322.672 13.7757Z" fill="#AFB9C5"/>
<path fill-rule="evenodd" clip-rule="evenodd" d="M344.398 21.6262L325.042 43.215H363.754L344.398 21.6262Z" fill="#45AFFA"/>
<path fill-rule="evenodd" clip-rule="evenodd" d="M352.694 21.6262C356.621 21.6262 359.804 18.9901 359.804 15.7383C359.804 12.4865 356.621 9.85046 352.694 9.85046C348.766 9.85046 345.583 12.4865 345.583 15.7383C345.583 18.9901 348.766 21.6262 352.694 21.6262Z" fill="#E3F2FF"/>
<path fill-rule="evenodd" clip-rule="evenodd" d="M708.992 315.355C708.995 315.362 708.998 315.368 709.002 315.375C708.998 315.369 708.992 315.344 708.992 315.355Z" fill="#45AFFA"/>
<path fill-rule="evenodd" clip-rule="evenodd" d="M708.999 315.365C708.999 315.367 709 315.369 709 315.372C709 315.365 708.986 315.345 708.999 315.365Z" fill="#45AFFA"/>
<path fill-rule="evenodd" clip-rule="evenodd" d="M708.944 315.255C708.955 315.281 708.97 315.306 708.982 315.332C708.976 315.319 708.97 315.308 708.963 315.295C709.129 315.636 709.024 315.414 708.944 315.255Z" fill="#45AFFA"/>
<path fill-rule="evenodd" clip-rule="evenodd" d="M708.98 315.334C708.986 315.346 708.992 315.359 708.999 315.371C709.045 315.446 708.98 315.334 708.98 315.334Z" fill="#45AFFA"/>
<path fill-rule="evenodd" clip-rule="evenodd" d="M708.998 315.366C708.998 315.365 708.998 315.365 708.996 315.363C708.998 315.365 708.998 315.365 708.998 315.366Z" fill="#45AFFA"/>
<path fill-rule="evenodd" clip-rule="evenodd" d="M709.004 315.375C709.013 315.391 708.962 315.315 709.004 315.375V315.375Z" fill="#45AFFA"/>
<path fill-rule="evenodd" clip-rule="evenodd" d="M708.999 315.366L708.996 315.363C708.997 315.365 708.997 315.366 708.999 315.366Z" fill="#45AFFA"/>
<path d="M656.065 264.991H761.929C763.675 264.991 765.089 266.162 765.089 267.608V323.869C765.089 325.315 763.675 326.486 761.929 326.486H656.065C654.32 326.486 652.905 325.315 652.905 323.869V267.608C652.905 266.162 654.32 264.991 656.065 264.991Z" fill="#C2DFFC"/>
<path fill-rule="evenodd" clip-rule="evenodd" d="M723.434 282.654L755.869 326.486H691L723.434 282.654Z" fill="#AFB9C5"/>
<path fill-rule="evenodd" clip-rule="evenodd" d="M689.992 294.395L718.666 326.486H661.318L689.992 294.395Z" fill="#45AFFA"/>
<path fill-rule="evenodd" clip-rule="evenodd" d="M677.791 294.43C671.901 294.43 667.126 290.476 667.126 285.598C667.126 280.72 671.901 276.766 677.791 276.766C683.681 276.766 688.456 280.72 688.456 285.598C688.456 290.476 683.681 294.43 677.791 294.43Z" fill="#E3F2FF"/>
<path fill-rule="evenodd" clip-rule="evenodd" d="M121.373 36.4702C116.766 31.0615 113.647 24.433 114.168 17.0056C115.669 -4.39492 145.46 0.312914 151.254 11.114C157.049 21.9152 156.361 49.3131 148.871 51.2436C145.885 52.0134 139.522 50.1276 133.047 46.2244L137.111 74.9801H113.111L121.373 36.4702Z" fill="#B28B67"/>
<path fill-rule="evenodd" clip-rule="evenodd" d="M134.246 19.369C135.165 32.1662 137.595 38.5648 141.537 38.5648C147.45 38.5648 152.466 34.8112 155.061 34.8112C156.952 34.8112 156.53 37.1778 155.276 38.9326C154.242 40.3803 149.205 41.7757 149.205 44.0202C149.205 46.2646 153.185 44.5282 153.185 45.8593C153.185 48.0612 153.884 52.2011 150.062 52.2011C146.195 52.2011 135.106 50.7917 133.206 45.0516C131.979 41.3471 131.186 33.6707 130.827 22.0223C130.592 21.9944 130.353 21.9801 130.111 21.9801C126.797 21.9801 124.111 24.6664 124.111 27.9801C124.111 29.6623 124.803 31.1829 125.919 32.2723C124.53 34.2319 122.974 36.279 121.192 38.3913C114.494 34.3728 109.523 22.6091 116.072 11.3084C117.882 5.77235 121.979 2.81535 126.818 1.44232C130.739 -0.197471 134.808 -0.382359 138.243 0.60068C144.977 1.17827 150.99 3.23162 152.694 4.45106C152.694 10.8263 151.459 12.7178 140.908 12.5511C138.315 13.9202 136.322 16.278 134.246 19.369Z" fill="#191847"/>
<path fill-rule="evenodd" clip-rule="evenodd" d="M95.5752 168.211C97.4557 193.876 218.598 269.438 219.305 271.558C219.619 272.5 207.05 302.286 181.598 360.915L192.187 365.03C231.227 302.937 249.744 268.583 247.738 261.967C244.868 252.494 213.537 221.333 153.746 168.484L95.5752 168.211Z" fill="#B28B67"/>
<path fill-rule="evenodd" clip-rule="evenodd" d="M184.384 347.674L201.674 353.968C238.131 312.833 252.421 278.894 249.815 261.601C248.078 250.073 216.855 218.963 156.147 168.273L94.3353 168.273C96.4443 227.71 208.728 271.784 210.23 274.317C211.732 276.85 196.952 301.656 184.384 347.674Z" fill="#2F3676"/>
<path fill-rule="evenodd" clip-rule="evenodd" d="M177.701 358.893C175.54 361.421 174.195 363.411 173.666 364.864C173.022 366.632 172.378 369.318 171.733 372.922C173.783 373.668 192.208 380.374 227.007 393.04C230.172 388.815 230.276 385.949 227.319 384.444C224.362 382.939 221.915 381.662 219.98 380.611L198.457 359.808C198.043 359.407 197.383 359.419 196.983 359.833C196.976 359.84 196.969 359.847 196.962 359.854L193.853 363.259C190.502 363.553 187.93 363.374 186.139 362.722C184.684 362.192 182.888 360.873 180.752 358.764L180.752 358.764C179.932 357.955 178.611 357.964 177.802 358.784C177.767 358.819 177.734 358.856 177.701 358.893Z" fill="#200394"/>
<path fill-rule="evenodd" clip-rule="evenodd" d="M109.504 168.211L55.5384 297.766L2.4986 407.295H15.0124L151.922 168.211H109.504Z" fill="#997659"/>
<path fill-rule="evenodd" clip-rule="evenodd" d="M1.75012 402.238C0.583372 405.353 0 407.683 0 409.23C0 411.11 0.313301 413.855 0.939902 417.463C3.12158 417.463 22.7286 417.463 59.7611 417.463C61.2897 412.409 60.4073 409.681 57.114 409.278C53.8207 408.875 51.0849 408.512 48.9066 408.187L21.5671 395.999C21.041 395.764 20.4244 396.001 20.1899 396.527C20.1859 396.536 20.182 396.545 20.1782 396.554L18.4209 400.817C15.3722 402.239 12.8947 402.95 10.9887 402.95C9.44001 402.95 7.3013 402.325 4.57255 401.074L4.57256 401.074C3.52539 400.594 2.28734 401.054 1.8073 402.101C1.78661 402.146 1.76753 402.192 1.75012 402.238Z" fill="#200394"/>
<path fill-rule="evenodd" clip-rule="evenodd" d="M7.28833 384.541L35.0942 389.756C56.5935 358.148 146.569 228.544 156.434 168.211H94.5323C61.5881 211.826 27.7817 352.41 7.28833 384.541Z" fill="#5C63AB"/>
<path fill-rule="evenodd" clip-rule="evenodd" d="M196.519 61.2926L236.049 49.4261C243.423 43.6856 250.379 39.4883 256.916 36.8344C258.817 36.4766 261.965 36.6844 258.031 41.1462C254.098 45.6079 250.162 50.4779 251.285 52.3488C252.408 54.2196 256.499 52.8093 257.684 55.7728C258.473 57.7485 251.694 59.1635 237.347 60.0179L206.612 78.1059L196.519 61.2926ZM193.026 130.987L226.293 155.415C235.315 157.85 242.853 160.879 248.907 164.502C250.337 165.805 252.065 168.444 246.135 167.988C240.204 167.532 233.946 167.319 233.128 169.342C232.31 171.364 235.898 173.783 234.244 176.513C233.141 178.332 227.932 173.77 218.615 162.826L185.672 149.165L193.026 130.987Z" fill="#B28B67"/>
<path fill-rule="evenodd" clip-rule="evenodd" d="M141.355 65.1993C159.471 98.9782 185.667 124.872 223.644 151.79L209.265 168.004C166.861 152.246 144.482 142.738 133.492 110.824C130.733 102.814 128.806 77.2803 127.152 63.8457L141.355 65.1993Z" fill="#2026A2"/>
<path fill-rule="evenodd" clip-rule="evenodd" d="M90.7111 177.741H171.014C152.824 122.265 143.532 84.1895 143.138 63.5148C143.118 62.4607 141.171 60.6034 140.31 60.8466C134.012 62.6254 127.272 61.9603 120.091 58.8514C101.054 89.4691 94.4705 127.166 90.7111 177.741Z" fill="#F2F2F2"/>
<path fill-rule="evenodd" clip-rule="evenodd" d="M126.944 58.9008C149.962 59.0893 187.308 63.2927 230.378 49.4653L234.631 70.7127C202.079 91.6486 169.117 107.867 140.234 105.563C152.776 159.363 152.198 203.403 124.509 203.403C111.286 203.403 97.0131 203.403 81.6912 203.403C74.8908 157.701 92.7636 94.3345 109.333 62.3728C109.966 61.1523 111.313 58.8514 114.486 58.8514C117.251 58.8514 121.398 58.8514 126.927 58.8514C126.933 58.8679 126.938 58.8843 126.944 58.9008Z" fill="#1F28CF"/>
</svg>
